Simulation
nRows=23
nColumns=15
endheader
time  TH_x TH_y TH_z SC_y  SC_z  SC_x  AC_y  AC_z  AC_x  GH_y  GH_z  GH_yy  EL_x  PS_y
0.0  0.000000  0.000000  0.000000  -29.721029988400016  -0.9504839260182514  -2.8322116344017156  57.781594857455474  7.753352109794943  -5.1101516920020975  29.52264283587208  15.11905757712823  11.417708047555312  27.3076818235465  0.000000
0.038999999999999986  0.000000  0.000000  0.000000  -29.40508613192137  -0.5719325011680974  -1.901089075163839  57.12151230322339  7.403523493816809  -5.8365956631243305  30.16439219961096  15.337160417296907  10.457759923205254  26.890400822612595  0.000000
0.07799999999999997  0.000000  0.000000  0.000000  -29.123913520361146  -0.2848898034958093  -1.0471918509740525  56.5039332326482  6.966896961950889  -6.568968767864089  30.856850987200243  15.495041955061785  9.475104255736865  26.430769895967764  0.000000
0.11699999999999997  0.000000  0.000000  0.000000  -28.892029876667532  -0.09070198934866243  -0.2748157177670838  56.00305269291916  6.468399484741065  -7.247580396926055  31.63932013128552  15.673071300711737  8.398708783278357  25.956372665809976  0.000000
0.15599999999999994  0.000000  0.000000  0.000000  -28.709150649752775  -0.0009695783863647269  0.40885656018230615  55.67603742098728  5.94661784277945  -7.8318923263034135  32.54277727958498  15.958852977679582  7.14009229776003  25.494165846980238  0.000000
0.19499999999999992  0.000000  0.000000  0.000000  -28.57859998859778  -0.010283663148384758  1.0001881120902207  55.544730774268274  5.444918885525969  -8.292818730381985  33.602254324585516  16.432155648774604  5.629769188847221  25.090702711445996  0.000000
0.23399999999999993  0.000000  0.000000  0.000000  -28.49573752134336  -0.10027141318306286  1.4924678495338524  55.5988307300938  5.005753338216543  -8.616476703996533  34.83799319223649  17.155462640032738  3.8131297860934676  24.78359294929858  0.000000
0.2729999999999999  0.000000  0.000000  0.000000  -28.459351336957045  -0.2464374931871351  1.8836977553019085  55.809959088270105  4.665630962112816  -8.804368906479144  36.252034570134754  18.170314974693326  1.6617277358290825  24.587119621777717  0.000000
0.3119999999999999  0.000000  0.000000  0.000000  -28.457978570755948  -0.4176324194163688  2.1837458133481125  56.138076499670596  4.447368186199603  -8.87040195835289  37.82000532327128  19.488027647210508  -0.8282953715808937  24.49479359486124  0.000000
0.35099999999999987  0.000000  0.000000  0.000000  -28.47012128104535  -0.5806703998037688  2.4212307999748095  56.540943793908085  4.362446470156644  -8.841453637243257  39.49922865312314  21.08697552521889  -3.6254121709500273  24.488804609400617  0.000000
0.38999999999999985  0.000000  0.000000  0.000000  -28.46427960657809  -0.7034200489672994  2.642202865426064  56.97699424700168  4.410361128518819  -8.753679940068402  41.23496542531544  22.917653018545355  -6.667820130940769  24.55197776401504  0.000000
0.4289999999999998  0.000000  0.000000  0.000000  -28.411237391347797  -0.7616605187086729  2.9029499630695534  57.41388732323524  4.57878720618964  -8.64662069938891  42.97156482037033  24.916875989312096  -9.873551108910318  24.666437837644736  0.000000
0.46799999999999986  0.000000  0.000000  0.000000  -28.294055840909262  -0.7428426550935929  3.259188341280667  57.8299359796451  4.841094048406673  -8.55630981396499  44.658777568922595  27.023901338917767  -13.160941953872534  24.81387392283842  0.000000
0.5069999999999998  0.000000  0.000000  0.000000  -28.111171521184794  -0.6486630395582094  3.7572506011694857  58.21506546221579  5.158940653733161  -8.512724805156987  46.25651962349068  29.190715850462883  -16.464624857987797  24.970499386621157  0.000000
0.5459999999999998  0.000000  0.000000  0.000000  -27.873051151650543  -0.49226981930663677  4.426779030162134  58.56501463850569  5.492027050171277  -8.538222575701752  47.73867593994943  31.383760644999644  -19.740552821150025  25.11172009604165  0.000000
0.5849999999999997  0.000000  0.000000  0.000000  -27.598801227512357  -0.2894330332077315  5.279128576528056  58.87742692937888  5.80541218547439  -8.645159574017029  49.094870192560855  33.581003817556116  -22.962852642895843  25.221820014254412  0.000000
0.6239999999999998  0.000000  0.000000  0.000000  -27.31086599246251  -0.054192617211355175  6.3103031995257854  59.15023968626547  6.074251236120209  -8.835349799429077  50.32761222962283  35.767580362958824  -26.115957552235805  25.29346317030583  0.000000
0.6629999999999998  0.000000  0.000000  0.000000  -27.027614244489545  0.20397085256430703  7.505027461179121  59.38298613935463  6.286247760953336  -9.100482371824764  51.44429220501245  37.93071219898392  -29.185435841023846  25.324526625613988  0.000000
0.7019999999999997  0.000000  0.000000  0.000000  -26.75998595963892  0.4820667874093511  8.842453238951459  59.577826077604364  6.440620237739578  -9.422207104909067  52.45047880186309  40.05455643590019  -32.14668686508758  25.31627807780194  0.000000
0.7409999999999998  0.000000  0.000000  0.000000  -26.51025264830105  0.7822227433893298  10.298889817362861  59.740163374354  6.544781935155669  -9.773457376530356  53.343365021293  42.11841126769013  -34.959855316729744  25.271336089529346  0.000000
0.7799999999999997  0.000000  0.000000  0.000000  -26.276895692209024  1.108564436300721  11.847952577724257  59.879445686843106  6.610280066184406  -10.120140163682342  54.109686235053175  44.097843712266176  -37.57164556224189  25.193213314678307  0.000000
0.8189999999999997  0.000000  0.000000  0.000000  -26.061962159875527  1.4646037112827297  13.456705561923648  60.00861691214319  6.648077962781512  -10.422660759183305  54.72710438748422  45.96979773109576  -39.92563571452863  25.087721719114906  0.000000
0.8579999999999997  0.000000  0.000000  0.000000  -25.876927422801074  1.8515799208228993  15.081884293243514  60.144057019028764  6.666608432339465  -10.637732946073626  55.168704528015766  47.71722039550147  -41.97552405271944  24.964017534514824  0.000000
